<svg version="1.1" id="Layer_1" xmlns="http://www.w3.org/2000/svg" xmlns:xlink="http://www.w3.org/1999/xlink" x="0px" y="0px"
	 viewBox="0 0 500 500" style="enable-background:new 0 0 500 500;" xml:space="preserve">
<style type="text/css">
	.st0{fill:#ED1C2E;}
</style>
<g id="XMLID_1_">
	<path id="XMLID_3_" class="st0" d="M349.9,253.6c1.8-0.1,6.4,0.5,16.3,0.9c10.3,0.4,12.4-7.6,11.9-12.6c-10.5,2.3-13,2.9-22.1,2.9
		c-9.6,0-21.3,2.7-21.5,11c-0.2,8.3,10.7,10.2,16.3,11.8c1.6,0.4,2.2,1.6,1.1,2.5c-2.4,1.9-7.9,4.5-8.5,9.1
		c-0.9,6.5,5,11.5,12.4,11.4c9.9-0.2,20.9-4.4,31.4-17c3-3.6,6.3-9.6,8.4-12.2c0.5-1,1.9-1.4,2.5-1.3c1.9,0.4,4.5,1.8,4.2,3.9
		c-0.5,3.1-9.1,12.9-3.4,18.7c3.5,3.6,12.2,6.2,19.2,1.1c6.5-4.8,4.2-9.1,1.6-9.4c-1.8-0.2-7,6.3-11.2,1.6
		c-3.5-3.8,4.8-11.8,6.4-14.6c2.4-4.1-6.9-7.2-10.8-12.2c-2.5-3.3,4-13.6-4.1-16.3c-2.7-0.9-10.9,4.1-8,18.3
		c-3.7,14-32.2,38.6-36,28.7c-0.9-2.4,1.5-6.4,8-7.8c10.8-2.2,9.9-8.9,4.8-9.6c-8.1-1-10.3-1-19.9-3.3
		C345.3,258.6,345.4,253.5,349.9,253.6"/>
	<path id="XMLID_4_" class="st0" d="M194.3,269.1c-2.6,2.6-5.6,6.2-6,9.2c-0.9,6.3,2.4,11.9,10.4,11.8c8.7-0.1,11.5-6.4,26-15.2
		c4-2.5,9.1-6.6,11.1-7c0.8,0,2,0.3,1.9,1.8c-1.2,5.8-2.6,9.6-1.1,14.6c1.1,3.5,5.7,5.7,9,3.1c5.5-4.2,5.6-6.6,12.7-16
		c1.2-1.6,5.5-8.7,7.6-7.8c1.7,0.8,1.2,3.1,0.9,4.9c-1.5,8.8-5.3,22.7,12.1,20.6c4.1-0.5,7.5-3.3,4.3-6.3c-1.9-1.8-4-0.5-6.4-1
		c-5.6-1.3,8.3-26.8,1.6-31.5c-9.3-6.6-17.9,5.1-24.3,13.7c-2.6,3.4-4.4,1.9-6.1-2.9c-1.8-5.3-12.9-1.4-19.2,1.8
		c-10.1,5.2-28.8,22.7-30.5,14c-0.3-1.5,2.1-4.9,6.7-6.5c5.3-1.9,11.3-3.7,11.3-6.9c0-2.5-1.5-4.2-3.1-4.1c-7.4,0.4-16.1,2.4-26-0.4
		c-2.2,0-3.2-5.7,3.5-4.9c1.8,0.2,5.7,0.5,20.7,0.8c10.5,0.2,10.8-7.7,9.4-11.9c-8.8,2.6-13.2,2.3-22.5,2.3
		c-9.7,0-22.8,1.3-22.3,10.7c0.5,7.9,11.6,10.1,17.3,10.7C195,266.7,195.5,268.2,194.3,269.1"/>
	<path id="XMLID_5_" class="st0" d="M162.3,248.8c0.9-3.3,2.8-4,5.4-4.6c3.8-1.2,9.1-2.9,12.4-3.5c8.3-2,10.6-1.6,11.7-7.3
		c0.8-4-1-5.9-1-5.9s-18,5.6-21.6,6.6c-3.1,1.3-2.5-1.9-2.5-1.9s-0.4,2.1,1.5-6.4c5.9-25.9,2.4-32.8-2.2-36.7
		c-11.8-9.8-55.1,10.5-86,34.9c-10.3,9-16.3,11.1-9.6,18.2c6,6,9.9,1.5,9.9,1.5c5.7-4.5,17.9-17,26-23c11.5-8.5,27.3-20.8,41.4-24
		c11.1-2.8,14.5,0.5,13,11.8c-0.9,9.7-8.4,31.7-8.4,31.7s-11.5,5.1-14.9,6.4c-2.7,1-5.5,0.3-5.8,6.4c-0.1,6.6,3.8,4.1,6.5,3.1
		c2-0.8,6.9-3.1,8.7-3.8c1.3-1,2.8-0.1,2.1,1.8c-1.3,4.3-3.8,11.3-8.4,21.5c-5.8,13.9-16.3,32.9-17.6,37.6c0.2,3.1,3.6,3.6,8.1,3.6
		c4.2-0.3,6.1-3.2,6.1-3.2s5.4-11.6,13.7-32.1C156.7,266.7,160.7,254.4,162.3,248.8"/>
	<path id="XMLID_6_" class="st0" d="M311,254.3c-6.5-1.9-12.1,5.8-13.8,12.6c-1.5,6.2-0.7,14.6,4.9,15.7c4.5,0.9,9.8-3.1,11.1-10.4
		c0.4-2,1.2-8.2,1.4-9.8c1.5-9.9,2.7-14.3,2.7-14.3c5.4-20.7,18.4-61,21.9-63.4c3.7-2.4,13.8-2.9,10.6,5.6
		c-4.9,13.1-10.6,24.7-15.8,40.8c-6.1,18.9-17.8,49.3-7.3,50.6c4.9,0.6,6.9-3.9,9.8-1.6c4.5,3.5-0.4,9.9-9.1,10.7
		c-11.9,0.4-11.6-6.5-16.9-3.5c-16.9,9.6-27.3-3.8-24-20.7c2.9-14.4,14-24.6,26.4-18.4c0,0,3.2,1.6,2.9,4.3
		C315.7,254.6,314.1,255,311,254.3"/>
	<path id="XMLID_11_" class="st0" d="M429.9,247.3c-1.7,1.7-3.8,2.6-6.2,2.6c-2.4,0-4.5-0.9-6.2-2.6c-1.7-1.7-2.5-3.8-2.5-6.2
		c0-2.4,0.9-4.5,2.6-6.2c1.7-1.7,3.8-2.6,6.2-2.6c2.4,0,4.5,0.9,6.2,2.6c1.7,1.7,2.6,3.8,2.6,6.2
		C432.5,243.5,431.7,245.6,429.9,247.3 M418.4,235.8c-1.5,1.5-2.2,3.2-2.2,5.3c0,2.1,0.7,3.9,2.2,5.4c1.5,1.5,3.3,2.2,5.4,2.2
		c2.1,0,3.9-0.7,5.3-2.2c1.5-1.5,2.2-3.3,2.2-5.4c0-2.1-0.7-3.9-2.2-5.3c-1.5-1.5-3.3-2.2-5.3-2.2
		C421.7,233.6,419.9,234.3,418.4,235.8 M423.6,236.2c1.2,0,2.1,0.1,2.6,0.4c1,0.4,1.5,1.2,1.5,2.4c0,0.9-0.3,1.5-0.9,1.9
		c-0.3,0.2-0.8,0.4-1.4,0.5c0.7,0.1,1.3,0.4,1.6,0.9c0.4,0.5,0.5,1,0.5,1.5v0.7c0,0.2,0,0.4,0,0.7c0,0.3,0,0.4,0.1,0.5l0.1,0.1h-1.6
		l0-0.1l0-0.1l0-0.3v-0.8c0-1.1-0.3-1.8-0.9-2.2c-0.4-0.2-1-0.3-1.9-0.3h-1.4v3.8h-1.7v-9.6L423.6,236.2L423.6,236.2z M425.4,237.8
		c-0.4-0.2-1.1-0.4-2.1-0.4h-1.5v3.4h1.6c0.7,0,1.3-0.1,1.6-0.2c0.7-0.2,1-0.7,1-1.5C426.1,238.5,425.9,238,425.4,237.8"/>
</g>
</svg>
